<svg xmlns="http://www.w3.org/2000/svg" xmlns:xlink="http://www.w3.org/1999/xlink" width="150" height="150" viewBox="0 0 150 150">
  <defs>
    <clipPath id="clip-path">
      <rect id="Rectángulo_467205" data-name="Rectángulo 467205" width="74.917" height="70.509" fill="#12263f"/>
    </clipPath>
  </defs>
  <g id="Grupo_1188431" data-name="Grupo 1188431" transform="translate(-185.738 -9253.601)">
    <g id="Grupo_1188415" data-name="Grupo 1188415" transform="translate(185.738 9253.602)">
      <circle id="Elipse_13890" data-name="Elipse 13890" cx="75" cy="75" r="75" transform="translate(150 150) rotate(180)" fill="#7dbfff"/>
      <path id="Intersección_3" data-name="Intersección 3" d="M0,70.769,123.344,0a74.749,74.749,0,0,1-73.06,90.233A74.419,74.419,0,0,1,0,70.769Z" transform="translate(24.681 59.414)" fill="#19538d"/>
      <circle id="Elipse_13891" data-name="Elipse 13891" cx="62.637" cy="62.637" r="62.637" transform="translate(137.638 137.609) rotate(180)" fill="#dfefff"/>
      <path id="Intersección_2" data-name="Intersección 2" d="M0,62.677a62.641,62.641,0,0,1,124.648-8.925L24.091,112.08A62.59,62.59,0,0,1,0,62.677Z" transform="translate(12.364 12.333)" fill="#fff"/>
      <g id="Grupo_1188343" data-name="Grupo 1188343" transform="translate(35.959 35.932)">
        <rect id="Rectángulo_459838" data-name="Rectángulo 459838" width="78.078" height="78.078" transform="translate(-0.248 0.045)" fill="none"/>
        <g id="Grupo_1216044" data-name="Grupo 1216044" transform="translate(1.752 4.045)">
          <g id="Grupo_1216043" data-name="Grupo 1216043" clip-path="url(#clip-path)">
            <path id="Trazado_1287334" data-name="Trazado 1287334" d="M27.722,44.194a62.53,62.53,0,0,1-18.28-1.835,23.7,23.7,0,0,1-7.133-3.144l.015,9.311a7.2,7.2,0,0,0,2.42,2.4,28.511,28.511,0,0,0,7.16,2.565,64.657,64.657,0,0,0,21.386.791,21.248,21.248,0,0,1-.835-9.271c-.7.527-1.405.756-1.908.483a1.2,1.2,0,0,1-.162-1.949l3.361-2.3a1.256,1.256,0,0,1,1.665.544l1.671,3.549a1.208,1.208,0,0,1-.8,1.571,1.55,1.55,0,0,1-1.534-.818A17.834,17.834,0,0,0,42.592,62.88,1.331,1.331,0,0,1,43,64.256c-.159.454-1.043.966-1.556.639a19.894,19.894,0,0,1-7.28-8.355c-8.912,1.229-23.263.868-30.854-3.8C2.04,51.954.033,50.489.032,48.713L0,8.632c0-3.366,6.345-6.022,10.005-6.9a64,64,0,0,1,29.632.005c3.761.9,10,3.478,10,7.1l.034,19.171a30.513,30.513,0,0,1,5.809.017,1.914,1.914,0,0,1-.54-1.88c.159-.461,1.327-.971,1.728-.414l2.543,3.542c.242.337.112,1.371-.263,1.554l-3.7,1.8a1.332,1.332,0,0,1-1.622-.5c-.284-.638.025-1.2.654-1.838a17.854,17.854,0,0,0-16.518,7.659,1.259,1.259,0,0,1-1.847.449,1.29,1.29,0,0,1-.13-1.776A20.2,20.2,0,0,1,47.28,28.534l-.012-2.212a24.146,24.146,0,0,1-7.575,3.248,64.179,64.179,0,0,1-28.342.338,25.2,25.2,0,0,1-9.037-3.629l.009,9.307a7.1,7.1,0,0,0,2.415,2.4c6.536,3.439,15.492,4.121,22.891,3.818a1.279,1.279,0,0,1,1.4,1.066,1.244,1.244,0,0,1-1.313,1.324M43.39,25.817a8.4,8.4,0,0,0,3.857-3.028l.047-9.445A25.771,25.771,0,0,1,38.3,17,64.7,64.7,0,0,1,9.777,16.6a25.039,25.039,0,0,1-7.461-3.209l.046,9.257c.774,1.694,2.621,2.579,4.25,3.348,7.526,2.988,17.2,3.429,25.228,2.6a39.261,39.261,0,0,0,11.55-2.775" transform="translate(0 0)" fill="#12263f"/>
            <path id="Trazado_1287335" data-name="Trazado 1287335" d="M195.972,186.3l-5.618-.017a2.783,2.783,0,0,1-.472-2.2l-2.6-1.051c-.314.612-1.414,1.565-2.049,1.02a36.041,36.041,0,0,1-3.47-3.459c-.546-.616.146-1.683,1.013-2.014L181.6,175.81c-.832.345-2.041.095-2.11-.678a25.771,25.771,0,0,1,.016-5.032c.076-.707,1.348-.923,2.1-.626l1.155-2.692c-.773-.339-1.6-1.535-.985-2.162l3.093-3.171a1.233,1.233,0,0,1,1.965.335,1.018,1.018,0,0,0,1.127.247l1.988-.923c-.283-.665-.1-2.025.647-2.1a27.035,27.035,0,0,1,5.059,0c.733.066.928,1.4.65,2.119l1.815.782.7.263c.293.111,1.459-1.848,2.543-.736l3.117,3.2c.681.7-.319,1.8-.991,2.216l1.191,2.591c.648-.23,2-.034,2.066.584a26.874,26.874,0,0,1,.014,5.161c-.062.693-1.361.937-2.116.655l-1.159,2.659c.621.311,1.583,1.354,1.077,1.965a36.008,36.008,0,0,1-3.441,3.521c-.691.635-1.748-.291-2.174-.951l-2.506,1.009a4.905,4.905,0,0,1-.466,2.254m-1.917-2.547c-.133-1.173.307-1.661,1.136-1.853a13.868,13.868,0,0,0,3.5-1.477c.607-.328,1.37.292,1.829.943l1.318-1.4c-2.076-1.4-.379-1.961.538-5.129.108-.373.255-1.048.557-1.085l1.547-.189-.022-1.819c-.588.029-1.625-.1-1.816-.515-.8-3.44-2.966-4.442-.856-5.933a4.178,4.178,0,0,0-1.411-1.326c-1.348,2.23-2.495-.231-5.936-.808a5.51,5.51,0,0,1-.5-1.88l-1.715.011c.051.67-.074,1.7-.6,1.864a23.865,23.865,0,0,0-4.226,1.739c-.47.241-1.234-.4-1.652-.961l-1.322,1.36c2.183,1.4-.055,2.553-.824,5.949-.262.395-1.218.524-1.833.5l-.02,1.929c2.564-.563,1.649,1.3,3.344,4.01.17.272.457,1.061.263,1.29l-.905,1.061,1.243,1.307c.392-.487,1.221-1.186,1.651-.976a27.941,27.941,0,0,0,4.2,1.737c.547.172.7.979.682,1.716a1.752,1.752,0,0,0,1.818-.061" transform="translate(-140.681 -124.617)" fill="#12263f"/>
            <path id="Trazado_1287336" data-name="Trazado 1287336" d="M213.566,278.773l-2.265-3.219a1.207,1.207,0,0,1,.659-1.893l3.281-1.547a1.291,1.291,0,0,1,1.6.55,1.384,1.384,0,0,1-.824,1.742,17.774,17.774,0,0,0,16.773-7.765,1.212,1.212,0,0,1,1.683-.354,1.23,1.23,0,0,1,.281,1.644,20.2,20.2,0,0,1-19.816,8.723,1.771,1.771,0,0,1,.48,2.036,1.161,1.161,0,0,1-1.855.083" transform="translate(-165.559 -208.691)" fill="#12263f"/>
            <path id="Trazado_1287337" data-name="Trazado 1287337" d="M296.316,167.589a1.2,1.2,0,0,1-1.865-.364l-1.688-3.5a1.342,1.342,0,0,1,.5-1.572,1.566,1.566,0,0,1,1.82.682,17.87,17.87,0,0,0-8.045-16.866c-.318-.211-.287-1.212-.091-1.516a1.283,1.283,0,0,1,1.505-.333,20.146,20.146,0,0,1,8.885,19.752l1.513-.514c.324-.11.939.493.99.83a1.641,1.641,0,0,1-.618,1.4Z" transform="translate(-224.938 -112.93)" fill="#12263f"/>
            <path id="Trazado_1287338" data-name="Trazado 1287338" d="M105.736,166.512l-3.746-.022c-.5,0-1.072-.749-1.065-1.2a1.316,1.316,0,0,1,1.108-1.135l3.685-.02a1.191,1.191,0,1,1,.019,2.38" transform="translate(-79.155 -128.728)" fill="#12263f"/>
            <path id="Trazado_1287339" data-name="Trazado 1287339" d="M105.735,226.452l-3.745-.017c-.507,0-1.065-.723-1.067-1.193a1.377,1.377,0,0,1,1.1-1.159l3.905,0c.52,0,1.055.726,1.049,1.166a1.244,1.244,0,0,1-1.24,1.2" transform="translate(-79.153 -175.747)" fill="#12263f"/>
            <path id="Trazado_1287340" data-name="Trazado 1287340" d="M105.877,106.568h-3.855a1.176,1.176,0,0,1,.038-2.344l3.693-.017a1.322,1.322,0,0,1,1.23.963,1.2,1.2,0,0,1-1.105,1.4" transform="translate(-79.182 -81.728)" fill="#12263f"/>
            <path id="Trazado_1287341" data-name="Trazado 1287341" d="M223.628,195.761a7.4,7.4,0,1,1-7.4-7.4,7.4,7.4,0,0,1,7.4,7.4" transform="translate(-163.785 -147.732)" fill="#12263f"/>
          </g>
        </g>
      </g>
    </g>
  </g>
</svg>
