<svg xmlns="http://www.w3.org/2000/svg" xmlns:xlink="http://www.w3.org/1999/xlink" width="126.439" height="128" viewBox="0 0 126.439 128">
  <defs>
    <clipPath id="clip-path">
      <rect id="Rectángulo_466754" data-name="Rectángulo 466754" width="62.991" height="63" fill="#19538d"/>
    </clipPath>
  </defs>
  <g id="Grupo_1215840" data-name="Grupo 1215840" transform="translate(0 0.001)">
    <ellipse id="Elipse_13890" data-name="Elipse 13890" cx="63.22" cy="64" rx="63.22" ry="64" transform="translate(0 -0.001)" fill="#5a9ad7"/>
    <path id="Intersección_1" data-name="Intersección 1" d="M0,64C0,28.652,28.3,0,63.217,0a62.545,62.545,0,0,1,41.742,15.93L1.449,77.683A64.974,64.974,0,0,1,0,64Z" transform="translate(0.002 -0.001)" fill="#19538d"/>
    <ellipse id="Elipse_13891" data-name="Elipse 13891" cx="53.341" cy="54" rx="53.341" ry="54" transform="translate(9.878 9.999)" fill="#fff"/>
    <g id="Grupo_1188343" data-name="Grupo 1188343" transform="translate(30.622 30.999)">
      <rect id="Rectángulo_459838" data-name="Rectángulo 459838" width="65.195" height="66" transform="translate(-0.13 -1.863)" fill="#fff"/>
      <g id="Grupo_1215997" data-name="Grupo 1215997" transform="translate(0.871 0.138)">
        <g id="Grupo_1215996" data-name="Grupo 1215996" clip-path="url(#clip-path)">
          <path id="Trazado_1287108" data-name="Trazado 1287108" d="M46.225,36.714l.007,11.629,10.612-.006a3.176,3.176,0,0,1,3.519-2.077,3.078,3.078,0,0,1,2.626,2.949,3.174,3.174,0,0,1-2.4,3.219A3.137,3.137,0,0,1,56.91,50.45l-10.677-.009-.009,11.553A1.143,1.143,0,0,1,45.063,63H17.931a1.137,1.137,0,0,1-1.165-.984L16.76,50.443l-10.649,0A3.245,3.245,0,0,1,2.695,52.49,3.181,3.181,0,0,1,0,49.388a3.082,3.082,0,0,1,2.47-3.1,3.176,3.176,0,0,1,3.675,2.05l10.616.006V36.8a1.192,1.192,0,0,1,.987-1.113l12.687,0,0-4.14-18.63,0a1.237,1.237,0,0,1-1.313-1.132l-.025-8.95L7.808,24.077l-2.6.071.007,5.446A3.085,3.085,0,0,1,7.263,33.17a3.146,3.146,0,0,1-6.176-.034A3.109,3.109,0,0,1,3.111,29.6l.01-6.483a1.122,1.122,0,0,1,1.134-1.076l2.7-.011,3.4-3.406a3.106,3.106,0,0,0,.072-1.47L6.932,13.675l-2.708,0a1.181,1.181,0,0,1-1.11-1.141l.009-6.422a3.2,3.2,0,0,1-2.06-3.424A3.132,3.132,0,0,1,3.987.007,3.073,3.073,0,0,1,7.219,2.331a3.112,3.112,0,0,1-2,3.77L5.2,11.556,7.8,11.6l2.67,2.567.021-8.943a1.011,1.011,0,0,1,1.1-1l39.624,0c.731,0,1.29.257,1.292,1.011l.025,8.935L55.191,11.6l2.594-.049.005-5.415A3.2,3.2,0,0,1,55.7,2.632a3.144,3.144,0,1,1,4.178,3.445l-.008,6.452a1.165,1.165,0,0,1-1.109,1.138l-2.717.02-3.363,3.367a2.236,2.236,0,0,0-.134,1.473l3.482,3.5,2.881.023a1.142,1.142,0,0,1,.96,1.059l.007,6.489a3.161,3.161,0,1,1-2.1,0l.008-5.462-2.527-.011L52.53,21.478l-.034,9.1c0,.54-.759.972-1.3.972l-18.61-.008-.043,4.142,12.526,0a1.129,1.129,0,0,1,1.152,1.029m-41-33.569A1.044,1.044,0,1,0,4.179,4.189,1.044,1.044,0,0,0,5.223,3.145m54.633,0a1.044,1.044,0,1,0-1.044,1.044,1.044,1.044,0,0,0,1.044-1.044m-9.425,5.7-.023-2.506H12.584l0,2.52L31.5,20.8Zm-.02,2.51L32.141,22.877a1.286,1.286,0,0,1-1.291,0L12.575,11.337l0,18.108H50.418ZM5.229,32.546a1.044,1.044,0,1,0-1.044,1.044,1.044,1.044,0,0,0,1.044-1.044m54.62,0A1.044,1.044,0,1,0,58.8,33.588a1.045,1.045,0,0,0,1.045-1.044M18.877,44.121H44.112V37.78H18.877Zm25.235,2.108H18.88v6.324H44.112ZM4.191,49.36a1.046,1.046,0,1,0-1.046,1.046A1.046,1.046,0,0,0,4.191,49.36m56.7,0a1.045,1.045,0,1,0-1.045,1.045,1.045,1.045,0,0,0,1.045-1.045M18.877,60.888H44.112V54.6H18.877Z" transform="translate(0 0)" fill="#19538d"/>
          <path id="Trazado_1287109" data-name="Trazado 1287109" d="M187.413,208.179a1.047,1.047,0,1,1-1.047-1.047,1.047,1.047,0,0,1,1.047,1.047" transform="translate(-149.626 -167.237)" fill="#19538d"/>
          <path id="Trazado_1287110" data-name="Trazado 1287110" d="M165.614,208.164a1.049,1.049,0,1,1-1.049-1.049,1.049,1.049,0,0,1,1.049,1.049" transform="translate(-132.022 -167.223)" fill="#19538d"/>
          <path id="Trazado_1287111" data-name="Trazado 1287111" d="M209.267,208.206a1.043,1.043,0,1,1-1.043-1.043,1.043,1.043,0,0,1,1.043,1.043" transform="translate(-167.276 -167.262)" fill="#19538d"/>
          <path id="Trazado_1287112" data-name="Trazado 1287112" d="M187.406,251.864a1.048,1.048,0,1,1-1.048-1.048,1.048,1.048,0,0,1,1.048,1.048" transform="translate(-149.618 -202.507)" fill="#19538d"/>
          <path id="Trazado_1287113" data-name="Trazado 1287113" d="M209.238,251.873a1.046,1.046,0,1,1-1.046-1.046,1.046,1.046,0,0,1,1.046,1.046" transform="translate(-167.248 -202.516)" fill="#19538d"/>
          <path id="Trazado_1287114" data-name="Trazado 1287114" d="M165.633,251.819a1.045,1.045,0,1,1-1.045-1.045,1.045,1.045,0,0,1,1.045,1.045" transform="translate(-132.043 -202.473)" fill="#19538d"/>
          <path id="Trazado_1287115" data-name="Trazado 1287115" d="M187.421,295.4a1.051,1.051,0,1,1-1.051-1.051,1.051,1.051,0,0,1,1.051,1.051" transform="translate(-149.625 -237.654)" fill="#19538d"/>
          <path id="Trazado_1287116" data-name="Trazado 1287116" d="M209.245,295.415a1.045,1.045,0,1,1-1.045-1.045,1.045,1.045,0,0,1,1.045,1.045" transform="translate(-167.255 -237.672)" fill="#19538d"/>
          <path id="Trazado_1287117" data-name="Trazado 1287117" d="M165.641,295.493a1.045,1.045,0,1,1-1.045-1.045,1.045,1.045,0,0,1,1.045,1.045" transform="translate(-132.049 -237.735)" fill="#19538d"/>
        </g>
      </g>
    </g>
  </g>
</svg>
